<?xml version="1.0" encoding="utf-8"?>
<!-- Generator: Adobe Illustrator 21.1.0, SVG Export Plug-In . SVG Version: 6.00 Build 0)  -->
<svg version="1.1" id="Layer_1" xmlns="http://www.w3.org/2000/svg" xmlns:xlink="http://www.w3.org/1999/xlink" x="0px" y="0px"
	 width="200px" height="90px" viewBox="0 0 250 120" style="enable-background:new 0 0 250 120;" xml:space="preserve">
<style type="text/css">
	.st0{fill:#FEFEFE;}
</style>
<g>
	<path class="st0" d="M25.5,67.8c1-0.9,1.9-1.9,2.9-2.8c0.2-0.2,0.2-0.3,0-0.6c-0.6-0.7-1.2-1.4-1.8-2.1c-1.7-2.1-3.1-4.3-4-6.8
		c-0.7-1.9-1.1-3.9-1.1-5.9c0-2.1,0.5-4.1,1.2-6.1c1.4-4,3.4-7.7,5.9-11.1c3.6-4.9,7.8-9.1,12.5-12.9c7.3-5.9,15.3-10.6,24-14
		c0.1,0,0.3,0,0.3-0.2c-0.2,0-0.4,0-0.6,0c-15.2,0-30.4,0-45.6,0c-4.7,0-9.4,0-14.2,0c0,29.3,0,58.6,0,87.9c0.2,0,0.2-0.2,0.3-0.3
		c0.2-0.3,0.3-0.6,0.5-0.8C11.4,83.2,18,75.1,25.5,67.8z"/>
	<path class="st0" d="M131.1,114.1c0-3.1,0-6.2,0-9.4c0-0.6,0-0.6-0.6-0.6c0,0-0.1,0-0.1,0c-0.2,0-0.3,0.1-0.3,0.3c0,0.3,0,0.6,0,1
		c-0.2,0-0.2-0.1-0.3-0.2c-1.4-1.9-5.1-1.8-6.4,0.9c-0.4,0.8-0.5,1.6-0.4,2.4c0.2,1.6,1.1,2.8,2.6,3.2c1.6,0.5,3,0.2,4.1-1.1
		c0-0.1,0.1-0.1,0.2-0.1c0.1,0.2,0,0.4,0,0.6c0,1,0,2,0,3c0,0.2,0.1,0.4-0.1,0.6c0.4,0,0.8,0,1.2,0
		C131,114.5,131.1,114.3,131.1,114.1z M127,111c-1.7,0-3-1.3-3-3c0-1.8,1.3-3.1,3-3.1c1.7,0,3,1.4,3,3
		C130.1,109.7,128.7,111,127,111z"/>
	<path class="st0" d="M42.9,31.2c-3,2.2-5.8,4.6-8.2,7.4c-1.7,2.1-3.2,4.3-4.1,6.9c-0.9,2.5-1.1,5-0.4,7.6c0.7,2.6,2,4.9,3.5,7
		c0,0,0.1,0.1,0.2,0c0.1-0.1,0.3-0.3,0.5-0.4c4.1-3.4,8.5-6.6,13-9.5c3.9-2.6,8-4.9,12.2-7c0,0.1,0,0.1,0.1,0.1
		c-0.4,0.2-0.7,0.4-1.1,0.7c-8.3,5.1-16,10.9-23.1,17.5c-0.2,0.1-0.3,0.3-0.4,0.5c0.6,0.8,1.3,1.4,1.9,2.1c0,0.1,0,0.2,0.1,0.3
		c0.6,0.7,1.2,1.4,1.8,2.1c0.1,0.1,0.1,0.2,0.3,0.2c0.1,0.2,0.3,0.3,0.4,0.5c1.3,1.5,2.7,3,3.9,4.6c1,1.3,1.9,2.7,2.5,4.3
		c1,2.9,0.5,5.4-1.5,7.7c-0.7,0.8-1.6,1.6-2.4,2.3c-2.1,1.6-4.5,2.9-6.9,4c-4.7,2.2-9.6,3.8-14.6,5.2c-0.5,0.1-0.9,0.3-1.4,0.4
		c0,0,0,0.1,0,0.1c0.2,0,0.5,0,0.7,0c16.1,0,32.2,0,48.4,0c0.8,0,0.7,0.1,0.7-0.7c0-15.6,0-31.1,0-46.7c0-0.2,0-0.4,0-0.6h0
		c0.1-0.2,0.3-0.2,0.5-0.3c4.2-2.2,8.5-4.2,12.9-6c1.4-0.6,2.8-1.2,4.2-1.8c-0.3,0-0.7,0.1-1,0.2c-4.4,1.4-8.7,3-12.9,4.7
		c-1.2,0.5-2.5,1-3.7,1.6c0-0.2,0-0.5,0-0.7c0-9,0-18,0-26.9c0-0.2,0-0.5,0-0.7c-0.2,0-0.4,0.1-0.5,0.1c-3.8,1.5-7.6,3.1-11.3,5
		C52.1,25.2,47.3,27.9,42.9,31.2z M60,43L60,43c0,0.1-0.1,0.1-0.1,0.1C60,43.1,60,43.1,60,43z"/>
	<path class="st0" d="M145.4,32.5c-0.7-3.9-2.5-7.2-5.3-9.8c-4.4-4.2-9.7-6.1-15.7-5.4c-3.9,0.4-7.3,1.9-10.3,4.4
		c-6.4,5.3-8.4,13.7-5.6,20.9c2.8,7.2,10.1,12.1,18,12.1c0.9,0,1.8,0,2.6-0.2c4.9-0.8,9.1-3,12.3-6.8
		C145.1,43.3,146.4,38.2,145.4,32.5z M126.4,49.6c-7.4,0-13.8-6.1-13.8-13.8c0-7.5,6.3-13.6,13.8-13.6c7.7,0.1,13.8,6.4,13.8,13.8
		C140.2,43.5,134,49.6,126.4,49.6z"/>
	<path class="st0" d="M133.3,62.9c-4.5-3.5-9.6-4.9-15.3-3.9c-4.6,0.8-8.5,2.9-11.5,6.5c-4.3,5-5.5,10.7-3.8,17
		c1.2,4.6,4.1,8.1,8.1,10.7c3.9,2.5,8.1,3.5,12.7,3c2.9-0.3,5.6-1.3,8.1-2.9c5.7-3.7,8.8-8.9,8.9-15.7c0-1.2-0.1-2.4-0.4-3.6
		C139.2,69.3,136.9,65.7,133.3,62.9z M121.2,91.1c-7.4,0-13.8-6-13.8-13.7c0-8,6.7-13.7,13.8-13.6c7.5,0,13.8,6.2,13.8,13.7
		C135,85.2,128.6,91.1,121.2,91.1z"/>
	<path class="st0" d="M172.6,60.3c0,11.4,0,22.9,0,34.3c0,0.1,0,0.3,0,0.4c0,0.2,0.1,0.3,0.3,0.3c0.1,0,0.3,0,0.4,0
		c3.2,0,6.4,0,9.6,0c1,0,2-0.1,2.9-0.2c2.1-0.4,4-1.2,5.5-2.7c2.6-2.6,3.3-5.8,2.6-9.2c-0.6-2.9-2.4-4.8-5.2-5.8
		c-0.2-0.1-0.4-0.1-0.6-0.3c0.2-0.1,0.3-0.1,0.4-0.2c0.1-0.1,0.3-0.1,0.4-0.2c2.3-1,3.9-2.8,4.6-5.3c0.4-1.3,0.4-2.6,0.3-3.9
		c-0.3-3.1-1.8-5.3-4.6-6.7c-1.7-0.9-3.6-1.3-5.5-1.3c-3.5-0.1-6.9,0-10.4,0C172.5,59.6,172.6,59.5,172.6,60.3z M178,64.6
		c0-0.5,0-0.5,0.5-0.5c1.6,0,3.2,0,4.8,0c2.4,0,4.6,1.6,4.9,4.1c0.4,2.7-0.8,5.4-3.7,6.5c-0.8,0.3-1.7,0.5-2.6,0.5
		c-1.2,0-2.3,0-3.5,0c-0.5,0-0.5,0-0.5-0.5c0-1.7,0-3.4,0-5.1C178,67.9,178,66.2,178,64.6z M178,79.9c0-0.5,0-0.5,0.5-0.5
		c1.2,0,2.4,0,3.6,0c1.2,0,2.4,0.3,3.5,0.9c2.2,1.2,3.1,3.2,2.9,5.5c0,0.4-0.1,0.9-0.2,1.3c-0.7,2.1-2.2,3.2-4.3,3.6
		c-0.5,0.1-1.1,0.1-1.6,0.1c-1.3,0-2.6,0-3.9,0c-0.5,0-0.5,0-0.5-0.6c0-1.7,0-3.5,0-5.2C178,83.3,178,81.6,178,79.9z"/>
	<path class="st0" d="M214.3,53.9c0.5,0,0.9-0.1,1.4-0.1c1.1-0.1,2.1-0.2,3.2-0.2c0.3,0,0.4-0.1,0.4-0.4c0-0.1,0-0.3,0-0.4
		c0-4.8,0-9.5,0-14.3c0-0.8-0.1-0.7,0.7-0.7c6,0,11.9,0,17.9,0c0.8,0,0.7-0.1,0.7,0.7c0,4.9,0,9.9,0,14.8c0,0.7-0.1,0.6,0.6,0.6
		c1.5-0.1,2.9-0.2,4.4-0.3c0.5,0,0.5,0,0.5-0.5c0-0.1,0-0.2,0-0.2c0-11.4,0-22.9,0-34.3c0-0.1,0-0.3,0-0.4c0-0.3-0.1-0.3-0.3-0.3
		c-1.5,0.1-3,0.2-4.5,0.3c-0.7,0-0.7,0.1-0.7,0.7c0,4.6,0,9.1,0,13.7c0,0.6,0,0.6-0.6,0.6c-0.1,0-0.1,0-0.2,0c-6,0-11.9,0-17.9,0
		c-0.1,0-0.3,0-0.4,0c-0.2,0-0.3-0.1-0.3-0.3c0-0.2,0-0.3,0-0.5c0-4.6,0-9.2,0-13.8c0-0.2,0-0.3,0-0.5c0-0.2-0.1-0.3-0.3-0.3
		c-1.5,0.1-3,0.2-4.5,0.3c-0.7,0-0.7,0-0.7,0.7c0,5.7,0,11.4,0,17.2c0,5.7,0,11.3,0,17c0,0.1,0,0.2,0,0.3
		C213.8,54,213.7,54,214.3,53.9z"/>
	<path class="st0" d="M163,96c1.3-0.6,2.6-1.2,3.9-1.8c0.2-0.1,0.4-0.1,0.6-0.4c-3.6-4.8-7.3-9.6-10.9-14.5c0.3-0.2,0.7-0.2,1-0.3
		c2.7-0.7,4.9-2.2,6.2-4.7c0.9-1.8,1.2-3.7,1-5.6c-0.3-3.4-2-6-5.1-7.6c-2-1-4.1-1.5-6.3-1.5c-2.7,0-5.3,0-8,0
		c-0.8,0-0.7-0.1-0.7,0.7c0,11.5,0,23,0,34.5c0,0.1,0,0.2,0,0.2c0,0.5,0,0.5,0.5,0.5c1.4-0.1,2.8-0.2,4.2-0.3c0.7,0,0.7,0,0.7-0.7
		c0-4.9,0-9.7,0-14.6c0-0.2-0.1-0.4,0.1-0.6c0.2,0.1,0.3,0.3,0.4,0.4c1.3,1.8,2.5,3.5,3.8,5.3c2.6,3.6,5.2,7.3,7.8,10.9
		C162.5,96.3,162.4,96.2,163,96z M153.2,75.7c-0.8,0-1.7,0-2.5,0c-0.5,0-0.5,0-0.5-0.5c0-1.8,0-3.5,0-5.3c0-1.7,0-3.5,0-5.2
		c0-0.1,0-0.3,0-0.4c0-0.2,0.1-0.3,0.3-0.3c1.7,0,3.5-0.2,5.1,0.4c1.9,0.7,3.3,1.9,3.8,3.8c0.8,2.9-0.5,6.2-4.2,7.2
		C154.5,75.6,153.8,75.7,153.2,75.7z"/>
	<path class="st0" d="M157.8,53.4c4.1,1.8,8.3,1.8,12.4,0c3.2-1.3,5.2-3.7,6.2-7c0.4-1.4,0.6-2.8,0.6-4.3c0-3.7,0-7.4,0-11.1
		c0-1.7,0-3.5,0-5.2c0-2.5,0-5,0-7.5c0-0.5,0-0.5-0.5-0.4c-1.4,0.1-2.8,0.2-4.2,0.3c-0.8,0.1-0.8,0-0.8,0.8c0,7.2,0,14.4,0,21.6
		c0,1.6-0.2,3.1-0.7,4.6c-0.8,2.2-2.2,3.7-4.5,4.3c-1.4,0.4-2.8,0.4-4.2,0.1c-2.1-0.5-3.6-1.7-4.5-3.7c-0.2-0.4-0.3-0.8-0.5-1.2
		c-0.4-1.3-0.5-2.7-0.5-4c0-7.4,0-14.7,0-22.1c0-0.1,0-0.3,0-0.4c0-0.3-0.1-0.4-0.4-0.4c-1.5,0.1-3,0.2-4.5,0.3c-0.1,0-0.3,0-0.4,0
		c-0.1,0-0.2,0.1-0.2,0.2c0,0.1,0,0.2,0,0.3c0,7.7,0,15.5,0,23.2c0,1.2,0.1,2.3,0.3,3.5C152.3,49.2,154.3,51.9,157.8,53.4z"/>
	<path class="st0" d="M84.9,35.4c1.1,0.8,2.4,1.4,3.7,1.9c1.4,0.5,2.8,1.1,4.2,1.6c0.8,0.3,1.6,0.7,2.3,1.3c0.9,0.7,1.5,1.5,1.8,2.6
		c0.2,0.7,0.2,1.5,0.1,2.2c-0.4,2.7-2.8,4.8-5.6,4.7c-1.4,0-2.6-0.5-3.7-1.3c-1.2-0.8-2.1-1.9-2.9-3.1c-0.1-0.2-0.2-0.4-0.4-0.5
		c0,0,0,0-0.1,0c-1.2,1.2-2.4,2.4-3.7,3.6c-0.1,0.1-0.1,0.3,0,0.4c0.2,0.3,0.4,0.6,0.7,0.9c3,3.8,6.9,5.4,11.7,4.8
		c5.4-0.7,9.4-5.2,9.4-10.7c0-3.9-1.5-6.8-4.9-8.7c-1-0.6-2.1-1.1-3.2-1.5c-1.4-0.6-2.8-1.1-4.1-1.7c-0.8-0.4-1.5-0.8-2.2-1.4
		c-0.6-0.6-1.1-1.2-1.3-2c-0.6-2.2,0.3-5.1,3.2-6.2c2.1-0.8,4.1-0.4,5.9,0.9c1,0.7,1.8,1.7,2.6,2.6c0.1,0.2,0.2,0.4,0.4,0.5
		c1.1-1.1,2.1-2.2,3.2-3.3c0.2-0.2,0.2-0.4,0-0.6c-0.4-0.6-0.9-1.1-1.4-1.7c-3.3-3.4-7.2-4.5-11.7-3.3c-3.4,0.9-5.8,3-7.2,6.3
		c-0.8,2-0.8,4-0.4,6.1C81.8,32.2,83,34.1,84.9,35.4z"/>
	<path class="st0" d="M235.2,96.1c3.3-0.4,5.9-1.9,7.8-4.6c1.8-2.5,2.2-5.3,1.8-8.3c-0.3-1.9-1.1-3.5-2.5-4.8c-1-1-2.2-1.7-3.4-2.3
		c-1.4-0.7-2.8-1.2-4.2-1.7c-1.3-0.5-2.5-1-3.6-1.8c-0.9-0.7-1.6-1.5-1.8-2.6c-0.5-2.1,0.3-4.6,2.6-5.8c1.9-1,3.9-0.9,5.8,0.2
		c1.1,0.7,2.1,1.6,2.9,2.6c0.3,0.3,0.5,0.6,0.8,1c0.1,0,0.1,0,0.1-0.1c1.1-1.1,2.1-2.2,3.2-3.3c0.2-0.2,0.1-0.3,0-0.4
		c-0.4-0.5-0.8-1-1.2-1.5c-3.7-4.2-9-4.9-13.4-3c-3.1,1.3-5.1,3.5-6,6.8c-0.5,1.7-0.4,3.5-0.1,5.2c0.4,2.1,1.5,3.8,3.2,5.1
		c1,0.8,2.1,1.4,3.3,1.9c1.3,0.5,2.6,1,3.9,1.5c1.1,0.4,2.2,0.9,3.2,1.6c1,0.7,1.7,1.6,2,2.8c0.2,0.9,0.1,1.8-0.1,2.6
		c-0.6,2.5-2.8,4.4-5.7,4.2c-1.3-0.1-2.5-0.6-3.5-1.3c-1.2-0.8-2.1-1.9-2.9-3.1c-0.1-0.2-0.2-0.4-0.4-0.5c-1.2,1.2-2.4,2.4-3.6,3.5
		c-0.2,0.2-0.2,0.4,0,0.6c1.1,1.5,2.3,2.8,3.8,3.8C229.6,95.9,232.3,96.5,235.2,96.1z"/>
	<path class="st0" d="M219.5,90.4c-4.6,0-9.2,0-13.8,0c-0.7,0-0.6,0.1-0.6-0.6c0-3.3,0-6.5,0-9.8c0-0.1,0-0.2,0-0.3
		c0-0.2,0.1-0.3,0.3-0.3c0.1,0,0.3,0,0.4,0c3.1,0,6.2,0,9.3,0c0.1,0,0.3,0,0.4,0c0.3,0,0.3-0.1,0.3-0.3c0-1.3,0-2.6,0-4
		c0-0.3-0.1-0.4-0.4-0.4c-0.4,0-0.8,0-1.2,0c-2.8,0-5.7,0-8.5,0c-0.8,0-0.7,0.1-0.7-0.7c0-3,0-5.9,0-8.9c0-0.7-0.1-0.7,0.7-0.7
		c4,0,8,0,12,0c0.2,0,0.4,0.1,0.6-0.1c0-0.1,0-0.1,0-0.2c-0.4-1.4-0.8-2.9-1.1-4.3c-0.1-0.3-0.2-0.4-0.5-0.4c-0.6,0-1.2,0-1.8,0
		c-4.9,0-9.9,0-14.8,0c-0.6,0-0.6,0-0.6,0.6c0,1.3,0,2.7,0,4c0,10.2,0,20.3,0,30.5c0,0.6-0.1,0.7,0.5,0.7c5.9,0,11.7,0,17.6,0
		c0.3,0,0.5-0.1,0.6-0.4c0.5-1.3,1.1-2.6,1.7-3.9c0.1-0.2,0.2-0.3,0.1-0.5C219.9,90.4,219.7,90.4,219.5,90.4z"/>
	<path class="st0" d="M96.3,74.7c-0.1,0-0.3,0-0.4,0c-2.7,0-5.3,0-8,0c-0.7,0-0.6,0.1-0.6-0.6c0-3,0-6,0-9c0-0.1,0-0.2,0-0.3
		c0-0.2,0.1-0.3,0.3-0.3c0.2,0,0.3,0,0.5,0c3.8,0,7.6,0,11.5,0c0.2,0,0.4,0,0.7-0.1c-0.4-1.5-0.8-3.1-1.2-4.6c0-0.1-0.1-0.2-0.3-0.2
		c-0.1,0-0.3,0-0.4,0c-5.3,0-10.6,0-15.9,0c-0.1,0-0.2,0-0.3,0c-0.3,0-0.4,0.1-0.4,0.4c0,0.1,0,0.2,0,0.3c0,11.6,0,23.1,0,34.7
		c0,0.1,0,0.3,0,0.4c0,0.1,0.1,0.2,0.2,0.2c0.1,0,0.2,0,0.3,0c1.4-0.1,2.7-0.2,4.1-0.3c1-0.1,0.9,0,0.9-0.9c0-4.8,0-9.6,0-14.3
		c0-0.6,0-0.6,0.6-0.6c0.1,0,0.2,0,0.3,0c2.6,0,5.2,0,7.8,0c0.1,0,0.3,0,0.4,0c0.2,0,0.3-0.1,0.3-0.3c0-1.4,0-2.7,0-4.1
		C96.7,74.8,96.6,74.7,96.3,74.7z"/>
	<path class="st0" d="M183.7,22.9c2.9,0,5.8,0,8.7,0c0.8,0,0.7-0.1,0.7,0.7c0,9.8,0,19.6,0,29.5c0,0.1,0,0.2,0,0.3
		c0,0.5,0,0.5,0.5,0.5c0.2,0,0.3,0,0.5,0c1.3-0.1,2.6-0.2,4-0.3c0.5,0,0.5,0,0.5-0.5c0-0.1,0-0.3,0-0.4c0-9.7,0-19.4,0-29.1
		c0-0.8-0.1-0.7,0.7-0.7c2.6,0,5.2,0,7.8,0c0.6,0,0.5,0,0.5-0.5c0-1.3,0-2.6,0-3.9c0-0.5,0-0.5-0.5-0.5c-0.1,0-0.2,0-0.2,0
		c-7.3,0-14.5,0-21.8,0c-0.1,0-0.2,0-0.3,0c-0.3,0-0.5,0.1-0.5,0.4c-0.1,0.4-0.3,0.8-0.4,1.2c-0.4,1.1-0.7,2.1-1.1,3.2
		C183.3,22.9,183.5,22.9,183.7,22.9z"/>
	<path class="st0" d="M13.4,91.9c-0.5,0.7-1,1.5-1.2,2.4c0.2,0.1,0.3,0,0.4,0c2.1-0.6,4.2-1.2,6.3-1.9c3.9-1.3,7.8-2.7,11.5-4.5
		c2.2-1.1,4.4-2.3,6.3-3.8c1.1-0.9,2.2-1.9,2.8-3.3c0.7-1.3,0.7-2.6,0.1-3.9c-0.3-0.8-0.8-1.5-1.3-2.2c-1.1-1.4-2.4-2.7-3.7-3.9
		c-0.3-0.3-0.3-0.3-0.7,0c-0.1,0-0.1,0.1-0.2,0.1c-5.2,4.4-10.1,9-14.6,14C17.2,87.1,15.2,89.5,13.4,91.9z"/>
	<path class="st0" d="M17.2,101.3c-0.5,0-0.5,0-0.7,0.5c-0.6,2.1-1.1,4.2-1.7,6.3c-0.2,0.6-0.3,1.2-0.5,1.8
		c-0.2-0.1-0.2-0.2-0.2-0.3c-0.3-1.3-0.7-2.6-1-3.9c-0.3-1.3-0.7-2.6-1-3.9c0-0.2,0-0.4-0.2-0.4c-0.5-0.2-0.8,0-0.9,0.5
		c-0.7,2.5-1.3,5-2,7.6c0,0.2-0.1,0.4-0.2,0.5c-0.1-0.2-0.1-0.3-0.2-0.5c-0.6-2.4-1.3-4.8-1.9-7.2c-0.3-1-0.3-1-1.4-0.9
		c0,0.2,0,0.3,0.1,0.4c0.6,2.2,1.2,4.4,1.8,6.6c0.3,0.9,0.5,1.9,0.8,2.8c0.2,0.6,0.2,0.6,0.8,0.6c0.6,0,0.6,0,0.7-0.6
		c0.6-2.4,1.3-4.9,1.9-7.3c0-0.1,0-0.3,0.2-0.4c0.4,1.4,0.7,2.7,1.1,4c0.3,1.3,0.7,2.6,1,3.8c0.1,0.3,0.2,0.4,0.5,0.4
		c0.1,0,0.2,0,0.2,0c0.7,0,0.5,0.1,0.7-0.6c0.6-2.2,1.2-4.4,1.8-6.5c0.3-1.1,0.6-2.2,0.9-3.3C17.6,101.2,17.4,101.3,17.2,101.3z"/>
	<path class="st0" d="M94.6,106.3c-0.1,0-0.1-0.1-0.2-0.1c0-0.2,0.2-0.2,0.3-0.3c0.9-0.7,1.1-1.6,0.9-2.7c-0.2-1-0.9-1.6-1.8-1.9
		c-0.3-0.1-0.6-0.1-1-0.1c-0.9,0-1.8,0-2.6,0c-0.4,0-0.4,0-0.4,0.5c0,1.9,0,3.8,0,5.7c0,1.3,0,2.6,0,3.9c0,0.4,0,0.4,0.4,0.4
		c0.6,0,1.3,0,1.9,0c0.6,0,1.3,0,1.9-0.1c1.3-0.3,2.2-1.1,2.3-2.4C96.3,107.9,95.8,106.9,94.6,106.3z M91.1,102.3
		c0.7,0,1.3-0.1,2,0.1c0.8,0.2,1.3,0.8,1.3,1.7c0,0.9-0.5,1.5-1.4,1.6c-0.7,0.1-1.3,0-2,0c-0.2,0-0.3-0.1-0.3-0.3c0-0.5,0-1,0-1.4
		c0-0.5,0-0.9,0-1.4C90.8,102.4,90.9,102.3,91.1,102.3z M95,109.4c-0.2,0.7-0.7,1.1-1.4,1.2c-0.8,0.2-1.7,0.1-2.5,0.1
		c-0.2,0-0.2-0.1-0.2-0.3c0-0.6,0-1.1,0-1.7c0-0.5,0-1.1,0-1.6c0-0.2,0.1-0.3,0.3-0.3c0.7,0,1.4,0,2.1,0
		C94.6,106.9,95.4,108.1,95,109.4z"/>
	<path class="st0" d="M200.6,107.6c0-0.4,0-0.7,0-1.1c-0.1-1.3-0.8-2.2-1.9-2.5c-1.3-0.4-2.6,0-3.3,1.1c-0.1,0.1-0.1,0.3-0.3,0.3
		c-0.5-0.9-1.2-1.4-2.3-1.5c-1.1-0.1-1.9,0.3-2.7,1.1c0-0.2,0-0.4,0-0.6c0-0.1,0-0.2-0.1-0.2c-0.3-0.1-0.5-0.1-0.8,0
		c-0.2,0.1-0.1,0.3-0.1,0.5c0,2.2,0,4.3,0,6.5c0,0.1,0,0.2,0,0.3c0,0.1,0.1,0.2,0.2,0.2c0.1,0,0.2,0,0.3,0c0.5,0,0.5,0.1,0.5-0.5
		c0-1.2,0-2.5,0-3.7c0-0.5,0.1-1,0.3-1.5c0.4-0.9,1.2-1.3,2.2-1.1c0.9,0.1,1.5,0.7,1.7,1.7c0,0.2,0.1,0.5,0.1,0.7c0,0.7,0,1.4,0,2.1
		c0,0.7,0,1.3,0,2c0,0.2,0.1,0.4,0.3,0.3c0.1,0,0.2,0,0.2,0c0.5,0,0.5,0,0.5-0.5c0-1.3,0-2.6,0-3.9c0-0.4,0-0.7,0.1-1.1
		c0.3-0.9,1.1-1.4,2.1-1.4c1,0,1.6,0.5,1.8,1.5c0.1,0.3,0.1,0.7,0.1,1c0,1.1,0,2.3,0,3.4c0,1,0,1,1,0.9c0.1-0.2,0-0.4,0.1-0.6
		C200.6,110,200.6,108.8,200.6,107.6z"/>
	<path class="st0" d="M187,106.2c-0.2-1.2-0.9-2-2.1-2.2c-1.2-0.3-2.3,0-3.1,1.1c-0.1,0.1-0.1,0.3-0.3,0.3c-0.8-1.7-3.2-2.2-4.9-0.3
		c0-0.3,0-0.5,0-0.7c0-0.1,0-0.2-0.1-0.3c-0.3-0.1-0.5-0.1-0.8,0c-0.2,0.1-0.1,0.3-0.1,0.4c0,2,0,4,0,5.9c0,0.3,0,0.6,0,0.9
		c0,0.1,0,0.2,0.1,0.3c0.3,0.1,0.6,0.1,0.8,0c0.2-0.1,0.1-0.3,0.1-0.5c0-1.2,0-2.5,0-3.7c0-0.7,0.1-1.3,0.5-1.9
		c0.5-0.7,1.1-0.9,1.9-0.8c0.8,0.1,1.3,0.5,1.6,1.2c0.2,0.4,0.2,0.8,0.2,1.2c0,1.2,0,2.4,0,3.6c0,0.2,0,0.4,0,0.6
		c0,0.2,0.1,0.3,0.3,0.3c0.1,0,0.2,0,0.3,0c0.4,0,0.4,0,0.4-0.4c0-1.3,0-2.5,0-3.8c0-0.3,0-0.5,0-0.8c0.1-1.1,0.9-1.8,2-1.8
		c1.1,0,1.8,0.6,2,1.6c0.1,0.4,0.1,0.7,0.1,1.1c0,1.2,0,2.3,0,3.5c0,0.1,0,0.3,0,0.4c0,0.1,0.1,0.2,0.2,0.2c0.1,0,0.2,0,0.3,0
		c0.5,0,0.5,0,0.5-0.5c0-1.3,0-2.5,0-3.8C187.1,107,187.1,106.6,187,106.2z"/>
	<path class="st0" d="M164.4,108.9c-0.5-0.1-0.9,0.1-1.2,0.5c-1.2,1.4-3,1.8-4.7,1.2c-1.9-0.7-3-2.7-2.6-4.8c0.3-1.7,1.3-3,3-3.5
		c1.7-0.5,3.2-0.1,4.4,1.3c0.4,0.5,0.8,0.6,1.3,0.6c0.1,0,0.2,0,0.3-0.1c-0.7-2-3.3-3.4-5.8-2.9c-2.6,0.5-4.5,2.8-4.4,5.6
		c0.1,2.6,2.1,4.9,4.7,5.1c2.5,0.3,5-1.1,5.5-2.9C164.7,108.9,164.5,108.9,164.4,108.9z"/>
	<path class="st0" d="M54.1,102.2c1.2,0.1,2.2,0.7,3,1.7c0.1,0.1,0.2,0.3,0.4,0.3c0.3,0,0.7,0,1.1,0c-0.7-1.8-3-3.6-6-2.9
		c-2.6,0.6-4.4,2.9-4.2,5.6c0.1,2.6,2.1,4.7,4.6,5c2.5,0.3,5-1,5.6-3c-0.1,0-0.2,0-0.3,0c-0.5-0.1-0.9,0.1-1.3,0.5
		c-1.6,1.9-4.6,1.9-6.3,0.1c-1-1.1-1.3-2.4-1.1-3.9C49.9,103.5,52,101.9,54.1,102.2z"/>
	<path class="st0" d="M42.4,101.3c-0.1,0-0.2,0-0.2,0c-0.6,0-0.6-0.1-0.6,0.5c0,1.1,0,2.1,0,3.2c0,0.1,0.1,0.3-0.1,0.3
		c-1.7-2.1-4.4-1.7-5.7-0.5c-1.6,1.5-1.7,4.3-0.2,5.9c0.8,0.8,1.7,1.2,2.8,1.2c1.3,0,2.3-0.5,3.2-1.5c0,0.2,0,0.4,0,0.7
		c0,0.7,0,0.7,0.7,0.6c0,0,0.1,0,0.1,0c0.1,0,0.2-0.1,0.2-0.2c0-0.1,0-0.2,0-0.3c0-3.1,0-6.2,0-9.3c0-0.1,0-0.2,0-0.3
		C42.7,101.3,42.6,101.3,42.4,101.3z M38.7,111c-1.8,0-3.1-1.2-3.1-3c0-1.7,1.3-3.1,3-3.1c1.8,0,3.1,1.4,3.1,3
		C41.7,109.6,40.4,110.9,38.7,111z"/>
	<path class="st0" d="M70.7,104.2c-0.2-0.1-0.5,0-0.7,0c-0.2,0-0.4,0.1-0.3,0.3c0,0.3,0,0.6,0,1c-1.2-1.2-1.8-1.5-2.9-1.6
		c-1.2,0-2.2,0.3-3,1.2c-1.6,1.6-1.4,4.4,0.2,5.9c1.3,1.2,4.2,1.5,5.7-0.5c0,0.3,0,0.7,0,1c0,0.1,0,0.2,0.2,0.3c0.2,0,0.5,0,0.7,0
		c0.1,0,0.1-0.1,0.2-0.2c0-0.1,0-0.2,0-0.3c0-2.2,0-4.4,0-6.6C70.8,104.5,70.8,104.3,70.7,104.2z M66.8,111c-1.8,0-3-1.3-3-3.1
		c0-1.7,1.3-3,3-3c1.7,0,3,1.3,3,3C69.7,109.7,68.5,111,66.8,111z"/>
	<path class="st0" d="M238.4,107.5c-0.2-2.2-1.9-3.6-4-3.6c-1.8,0-3.4,1.2-3.8,3c-0.5,1.8,0.3,3.7,1.9,4.6c1.6,0.9,3.7,0.6,4.9-0.7
		c0.3-0.3,0.6-0.7,0.8-1.2c-0.1,0-0.1,0-0.2,0c-0.2,0-0.3,0-0.5,0c-0.2,0-0.4,0.1-0.5,0.3c-0.8,1.1-1.8,1.5-3.1,1.2
		c-1.1-0.2-2.1-1.2-2.2-2.2c-0.1-0.5-0.1-0.5,0.4-0.5c1.4,0,2.7,0,4.1,0c0.7,0,1.3,0,2,0c0.3,0,0.4-0.1,0.4-0.4
		C238.4,107.8,238.4,107.6,238.4,107.5z M231.5,107.4c0-1.4,1.3-2.5,2.9-2.5c1.5,0,2.8,1.2,2.8,2.5
		C235.3,107.4,233.4,107.4,231.5,107.4z"/>
	<path class="st0" d="M146.1,103.9c-2.3-0.3-4.3,1.3-4.5,3.4c-0.3,2.4,1.3,4.3,3.6,4.6c2,0.2,3.8-1.4,3.9-2.5c-0.6-0.1-1,0-1.4,0.5
		c-0.7,1-1.8,1.2-2.9,0.9c-1.1-0.3-1.9-1-2.2-2.1c-0.1-0.5-0.1-0.6,0.4-0.6c1.9,0,3.8,0,5.8,0c0.2,0,0.4,0,0.6-0.1
		C149.8,106.1,148.2,104.2,146.1,103.9z M142.7,107.4c0.1-1.4,1.3-2.5,2.8-2.5c1.6,0,2.8,1,3,2.5
		C146.5,107.4,144.6,107.4,142.7,107.4z"/>
	<path class="st0" d="M21.8,103.9c-2.3,0-4,1.7-4,4.1c0,2.3,1.7,4,4,4c2.3,0,4-1.7,4-4C25.8,105.6,24.1,103.9,21.8,103.9z M21.8,111
		c-1.7,0-3-1.3-3-3c0-1.7,1.3-3.1,3-3.1c1.7,0,3,1.3,3,3C24.8,109.6,23.5,111,21.8,111z"/>
	<path class="st0" d="M101.3,103.9c-2.3,0-4,1.7-4,4c0,2.3,1.7,4,4,4c2.3,0,4.1-1.7,4-4C105.3,105.6,103.6,103.9,101.3,103.9z
		 M101.3,111c-1.4,0-3-1-3-3.1c0-1.7,1.3-3,3-3c1.7,0,3,1.3,3,3.1C104.3,109.7,103,111,101.3,111z"/>
	<path class="st0" d="M169.7,103.9c-2.2,0.1-3.9,1.9-3.9,4.1c0.1,2.3,1.8,4,4.2,3.9c2.3-0.1,4-1.8,3.9-4.1
		C173.9,105.5,172.2,103.9,169.7,103.9z M170,111c-1.7,0-3-1.3-3-3c0-1.7,1.3-3,3-3c1.7,0,3,1.3,3,3C172.9,109.7,171.6,111,170,111z
		"/>
	<path class="st0" d="M209,104.1c-0.8-0.1-0.8-0.1-0.8,0.7c0,1.2,0,2.5,0,3.7c0,1-0.4,1.7-1.4,2.1c-0.6,0.2-1.2,0.3-1.8,0.1
		c-0.8-0.2-1.4-0.7-1.6-1.5c-0.1-0.4-0.2-0.9-0.2-1.3c0-1.2,0-2.4,0-3.6c0-0.4,0-0.4-0.4-0.4c-0.1,0-0.2,0-0.2,0
		c-0.4,0-0.4,0-0.4,0.4c0,1.3,0,2.7,0,4c0,0.3,0,0.6,0.1,0.9c0.2,0.9,0.6,1.6,1.4,2.1c1.2,0.7,3.4,0.6,4.3-0.8c0-0.1,0.1-0.1,0.2,0
		c0,0.1,0,0.1,0,0.2c0,0.9,0,0.9,1,0.7c0-0.1,0-0.1,0-0.2c0-2.3,0-4.6,0-7c0,0,0-0.1,0-0.1C209.3,104.2,209.2,104.2,209,104.1z"/>
	<path class="st0" d="M113.5,104.1c-0.1,0-0.2,0-0.3,0c-0.4,0-0.4,0-0.4,0.4c0,1.1,0,2.2,0,3.3c0,0.4,0,0.8,0,1.1
		c-0.1,0.8-0.6,1.5-1.4,1.7c-0.6,0.2-1.2,0.2-1.8,0.1c-0.7-0.2-1.1-0.6-1.4-1.2c-0.2-0.4-0.2-0.9-0.2-1.4c0-1.2,0-2.4,0-3.6
		c0-0.5,0-0.5-0.5-0.5c-0.1,0-0.2,0-0.3,0c-0.2,0-0.3,0.1-0.3,0.3c0,1.6,0,3.1,0,4.7c0,1,0.4,1.8,1.3,2.3c1.2,0.8,3.6,0.7,4.5-0.7
		c0,0,0.1-0.1,0.2-0.1c0,0.2,0,0.5,0,0.7c0,0.2,0.1,0.4,0.3,0.3c0.1,0,0.2,0,0.3,0c0.4,0,0.4,0,0.4-0.4c0-2.3,0-4.5,0-6.8
		C113.9,104.3,113.9,104.1,113.5,104.1z"/>
	<path class="st0" d="M218.2,106.2c-0.2-0.8-0.5-1.4-1.2-1.8c-1.1-0.7-3.5-0.8-4.5,0.7c0,0-0.1,0.1-0.2,0c0-0.2,0-0.5,0-0.7
		c0-0.1,0-0.2-0.1-0.2c-0.3-0.1-0.6-0.1-0.8,0c-0.2,0.1-0.1,0.3-0.1,0.5c0,2.2,0,4.3,0,6.5c0,0.1,0,0.2,0,0.3c0,0.2,0.1,0.3,0.3,0.3
		c0.2,0,0.3,0,0.5,0c0.2,0,0.3-0.1,0.3-0.2c0-0.1,0-0.3,0-0.4c0-1.2,0-2.5,0-3.7c0-1.6,0.9-2.5,2.5-2.5c0.2,0,0.3,0,0.5,0
		c0.8,0.1,1.4,0.6,1.7,1.3c0.2,0.5,0.2,0.9,0.2,1.4c0,1.2,0,2.3,0,3.5c0,0.2,0,0.4,0.1,0.6c0.2,0,0.4,0,0.6,0c0.3,0,0.4-0.1,0.4-0.4
		c0-1.4,0-2.8,0-4.1C218.4,106.9,218.3,106.6,218.2,106.2z"/>
	<path class="st0" d="M140.1,104.7c0-0.1,0-0.2,0-0.3c0-0.2,0-0.3-0.2-0.3c-0.2,0-0.4,0-0.6,0c-0.1,0-0.2,0.1-0.2,0.2
		c0,0.1,0,0.3,0,0.4c0,1.2,0,2.5,0,3.7c0,1.3-0.7,2.2-1.9,2.4c-1.5,0.2-2.7-0.3-2.9-2.1c0-0.3,0-0.6,0-1c0-1.1,0-2.2,0-3.3
		c0-0.4,0-0.4-0.4-0.4c0,0-0.1,0-0.1,0c-0.5,0-0.5,0-0.5,0.5c0,1.3,0,2.6,0,4c0,0.5,0.1,1,0.2,1.4c0.3,0.7,0.7,1.3,1.4,1.6
		c1.1,0.5,3.2,0.6,4.3-0.9c0,0.3,0,0.5,0,0.8c0,0.1,0,0.2,0.1,0.2c0.3,0,0.6,0.1,0.8,0c0.2-0.1,0.1-0.3,0.1-0.5
		C140.1,109,140.1,106.9,140.1,104.7z"/>
	<path class="st0" d="M82.5,107.6c-0.4-0.1-0.7-0.2-1.1-0.3c-0.3-0.1-0.7-0.2-0.9-0.4c-0.5-0.4-0.6-1-0.3-1.5
		c0.3-0.5,0.8-0.6,1.3-0.6c0.5,0,0.9,0.3,1.1,0.8c0.1,0.4,0.3,0.5,0.6,0.4c0.1,0,0.1,0,0.2,0c0.4,0,0.4,0,0.3-0.4
		c-0.2-1.1-1.1-1.7-2.1-1.7c-0.7,0-1.3,0.1-1.7,0.5c-1,0.7-1.3,2.6,0.3,3.3c0.3,0.1,0.6,0.3,1,0.4c0.4,0.1,0.8,0.2,1.1,0.4
		c0.5,0.3,0.7,0.7,0.7,1.2c0,0.6-0.3,1-0.9,1.2c-0.7,0.3-1.9,0-2.1-1c-0.1-0.3-0.2-0.4-0.5-0.4c-0.1,0-0.2,0-0.3,0
		c-0.2,0-0.4,0.1-0.3,0.3c0.1,0.4,0.2,0.8,0.5,1.2c1,1.1,2.8,1.1,3.9,0.2C84.1,110.4,84.2,108.2,82.5,107.6z"/>
	<path class="st0" d="M243.1,107.6c-0.3-0.1-0.7-0.2-1-0.3c-0.3-0.1-0.7-0.2-0.9-0.4c-0.5-0.3-0.6-0.9-0.4-1.4
		c0.3-0.5,0.7-0.7,1.3-0.6c0.6,0,1,0.3,1.1,0.8c0.2,0.4,0.2,0.4,0.6,0.4c0.2,0,0.3,0,0.5-0.1c0-0.6-0.3-1.2-0.8-1.6
		c-0.9-0.7-2.3-0.6-3.2,0.1c-0.9,0.7-1.2,2.5,0.4,3.3c0.3,0.1,0.6,0.3,1,0.4c0.4,0.1,0.7,0.2,1.1,0.4c0.6,0.3,0.8,0.8,0.7,1.4
		c-0.1,0.6-0.6,1.1-1.3,1.1c-0.8,0.1-1.4-0.3-1.7-1.2c0-0.2-0.1-0.3-0.3-0.3c-0.3,0-0.5-0.1-0.8,0.1c0,0,0,0.1,0,0.2
		c0.1,0.5,0.2,0.9,0.6,1.2c0.9,1,2.7,1.1,3.8,0.2C244.8,110.4,244.9,108.2,243.1,107.6z"/>
	<path class="st0" d="M76.1,107.6c-0.4-0.1-0.7-0.2-1.1-0.3c-0.3-0.1-0.7-0.2-0.9-0.4c-0.6-0.5-0.6-1.4,0-1.8
		c0.8-0.5,1.8-0.2,2.1,0.7c0.1,0.2,0.2,0.3,0.4,0.3c0.1,0,0.3,0,0.4,0c0.3,0,0.3-0.1,0.3-0.4c-0.2-1.1-1.1-1.8-2.3-1.8
		c-0.6,0-1.1,0.2-1.6,0.5c-1,0.7-1.2,2.6,0.4,3.3c0.3,0.1,0.6,0.2,0.9,0.3c0.4,0.1,0.8,0.2,1.2,0.5c0.5,0.3,0.7,0.7,0.6,1.3
		c-0.1,0.5-0.3,0.9-0.8,1.1c-0.7,0.3-1.9,0-2.1-1c0-0.2,0-0.4-0.4-0.4c-0.8,0-0.9,0.1-0.6,0.8c0.1,0.2,0.2,0.5,0.4,0.6
		c0.9,1.1,2.9,1.2,4,0.2C77.8,110.3,77.9,108.2,76.1,107.6z"/>
	<path class="st0" d="M118.9,104.1c-0.3,0-0.7,0-1,0c-0.3,0-0.4-0.1-0.4-0.4c0-0.6,0-1.2,0-1.8c0-0.7,0-0.7-0.7-0.7
		c-0.3,0-0.3,0.1-0.3,0.4c0,0.1,0,0.3,0,0.4c0,0.6,0,1.2,0,1.7c0,0.3-0.1,0.4-0.4,0.4c-0.3,0-0.6,0-0.9,0c-0.1,0-0.2,0-0.2,0.1
		c-0.1,0.4,0,0.7,0.5,0.7c0.2,0,0.4,0,0.6,0c0.3,0,0.4,0.1,0.4,0.4c0,1,0,2,0,2.9c0,1,0,2,0,3.1c0,0.1,0,0.3,0.1,0.4
		c0.3,0.1,0.6,0.1,0.8,0c0.2-0.1,0.1-0.3,0.1-0.5c0-1.9,0-3.7,0-5.6c0-0.1,0-0.3,0-0.4c0-0.2,0.1-0.3,0.3-0.3c0.3,0,0.6,0,0.9,0
		c0.6,0,0.5,0,0.5-0.5C119.2,104.2,119.2,104.1,118.9,104.1z"/>
	<path class="st0" d="M22.3,75.5C22.3,75.5,22.3,75.5,22.3,75.5L22.3,75.5C22.3,75.5,22.3,75.5,22.3,75.5z"/>
	<path class="st0" d="M22.8,75.2c2.1-1.8,4.2-3.5,6.3-5.2c0.8-0.6,1.6-1.2,2.4-1.8c0.3-0.3,0.3-0.3,0-0.6c-0.3-0.3-0.5-0.5-0.8-0.8
		c-0.3-0.3-0.3-0.4-0.7,0c-2,2-3.8,4.1-5.7,6.2c-0.7,0.8-1.4,1.6-2,2.5C22.5,75.5,22.6,75.3,22.8,75.2z"/>
	<path class="st0" d="M226.4,104.1c-0.3,0-0.7,0-1,0c-0.3,0-0.4-0.1-0.4-0.4c0-0.7,0-1.4,0-2.1c0-0.3-0.1-0.4-0.4-0.4
		c-0.1,0-0.2,0-0.3,0c-0.3,0-0.4,0.1-0.4,0.4c0,0.5,0,1,0,1.5c0,0.3,0.1,0.7-0.1,0.9c-0.2,0.2-0.6,0.1-0.9,0.1
		c-0.6,0-0.6,0.1-0.5,0.6c0,0.2,0.1,0.3,0.2,0.2c0.2,0,0.4,0,0.6,0c0.7,0,0.6-0.1,0.6,0.6c0,0.9,0,1.8,0,2.8c0,0.4,0,0.7,0,1.1
		c0,0.7,0,1.3,0,2c0,0.3,0.1,0.4,0.4,0.4c0.1,0,0.2,0,0.2,0c0.4,0,0.4,0,0.4-0.4c0-1.5,0-3,0-4.4c0-0.5,0-1,0-1.5
		c0-0.4,0-0.4,0.4-0.4c0.3,0,0.6,0,0.9,0c0.4,0,0.3-0.2,0.3-0.4C226.8,104.3,226.8,104.1,226.4,104.1z"/>
	<path class="st0" d="M61.2,101.5c0-0.1,0-0.2-0.1-0.2c-0.3,0-0.5,0-0.8,0c-0.1,0-0.1,0.1-0.1,0.2c0,0.1,0,0.3,0,0.4
		c0,3.1,0,6.2,0,9.3c0,0.1,0,0.2,0,0.3c0,0.2,0.1,0.2,0.2,0.2c0.1,0,0.2,0,0.2,0c0.6,0,0.6,0,0.6-0.6c0-1.5,0-3.1,0-4.6
		c0-1.6,0-3.1,0-4.7C61.2,101.7,61.2,101.6,61.2,101.5z"/>
	<path class="st0" d="M30.9,104.2c0-0.2-0.1-0.3-0.3-0.3c-0.6,0.1-1.2,0.3-1.7,0.8c-0.1,0.1-0.2,0.3-0.3,0.3c0,0-0.1-0.1-0.1-0.1
		c0-0.1,0-0.2,0-0.3c0-0.6,0-0.5-0.6-0.5c-0.1,0-0.1,0-0.2,0c-0.2,0-0.3,0-0.3,0.2c0,0.1,0,0.2,0,0.3c0,2.2,0,4.4,0,6.6
		c0,0.2,0,0.3,0.1,0.5c0.1,0,0.3,0,0.5,0c0.5,0,0.5,0,0.5-0.5c0-1.2,0-2.4,0-3.6c0-0.2,0-0.5,0-0.7c0.1-1.2,0.8-1.9,1.9-2
		c0.5-0.1,0.5-0.1,0.5-0.5C30.9,104.4,30.9,104.3,30.9,104.2z"/>
	<path class="st0" d="M33,101.5c0-0.1,0-0.2-0.1-0.2c-0.3,0-0.6-0.1-0.9,0c-0.2,0.1-0.1,0.3-0.1,0.5c0,3.1,0,6.3,0,9.4
		c0,0.5,0,0.5,0.5,0.5c0.5,0,0.5,0,0.5-0.5c0-1.6,0-3.1,0-4.7s0-3.1,0-4.7C33,101.8,33,101.6,33,101.5z"/>
	<path class="st0" d="M228.4,104.1c-0.7,0-0.6,0-0.6,0.6c0,2.2,0,4.3,0,6.5c0,0.1,0,0.2,0,0.3c0,0.1,0.1,0.2,0.2,0.2
		c0.1,0,0.2,0,0.3,0c0.5,0,0.5,0,0.5-0.5c0-2.2,0-4.3,0-6.5c0-0.2,0-0.3,0-0.6C228.7,104.1,228.6,104.1,228.4,104.1z"/>
	<path class="st0" d="M221.1,104.1c-0.1,0-0.1,0-0.2,0c-0.6,0-0.5,0-0.5,0.5c0,2.2,0,4.4,0,6.6c0,0.1,0,0.2,0,0.2
		c0,0.2,0.1,0.3,0.3,0.3c0.1,0,0.2,0,0.2,0c0.5,0,0.5,0,0.5-0.5c0-1.1,0-2.2,0-3.3c0-0.2,0-0.5,0-0.7c0-0.9,0-1.8,0-2.6
		C221.4,104.3,221.4,104.1,221.1,104.1z"/>
	<path class="st0" d="M121.1,104.1c-0.1,0-0.2,0-0.2,0c-0.5,0-0.5,0-0.5,0.5c0,1.6,0,3.3,0,4.9c0,0.7,0,1.3,0,2
		c0,0.2,0.1,0.3,0.3,0.3c0.1,0,0.2,0,0.3,0c0.5,0,0.5,0,0.5-0.5c0-1.1,0-2.2,0-3.3c0-1.1,0-2.3,0-3.4
		C121.4,104.2,121.3,104.1,121.1,104.1z"/>
	<path class="st0" d="M228.2,101.3c-0.2,0-0.4,0.1-0.3,0.3c0,0.2,0,0.5,0,0.7c0,0.5,0,0.5,0.5,0.5c0.6,0,0.6,0.1,0.6-0.6
		c0-0.1,0-0.1,0-0.2C228.9,101.2,229.1,101.3,228.2,101.3z"/>
	<path class="st0" d="M221.1,101.3c-0.9,0-0.7,0-0.8,0.7c0,0.8-0.1,0.8,0.5,0.8c0.5,0,0.6,0.1,0.6-0.6c0-0.2,0-0.4,0-0.6
		C221.4,101.3,221.3,101.3,221.1,101.3z"/>
	<path class="st0" d="M120.9,101.3c-0.6,0-0.5,0-0.6,0.6c0,0.1,0,0.2,0,0.3c0,0.6,0,0.6,0.6,0.6c0.5,0,0.5,0,0.5-0.5
		c0-0.1,0-0.2,0-0.2C121.4,101.3,121.5,101.3,120.9,101.3z"/>
	<path class="st0" d="M22.3,75.6C22.3,75.6,22.3,75.5,22.3,75.6C22.2,75.5,22.2,75.5,22.3,75.6z"/>
	<polygon class="st0" points="22.3,75.5 22.3,75.5 22.3,75.5 	"/>
</g>
</svg>
